<?xml version="1.0" encoding="utf-8"?>
<!-- Generator: Adobe Illustrator 24.2.3, SVG Export Plug-In . SVG Version: 6.00 Build 0)  -->
<svg version="1.1" id="Layer_1" xmlns:v="https://vecta.io/nano"
	 xmlns="http://www.w3.org/2000/svg" xmlns:xlink="http://www.w3.org/1999/xlink" x="0px" y="0px" viewBox="0 0 1200 1200"
	 style="enable-background:new 0 0 1200 1200;" xml:space="preserve">
<style type="text/css">
	.st0{fill:url(#SVGID_1_);}
</style>
<linearGradient id="SVGID_1_" gradientUnits="userSpaceOnUse" x1="147.9667" y1="600.0667" x2="1049.3667" y2="600.0667">
	<stop  offset="2.184394e-07" style="stop-color:#CD4791"/>
	<stop  offset="1" style="stop-color:#8E208E"/>
</linearGradient>
<path className="st0" d="M564.9,1.9c-0.5,1.2-3.6,2.3-8.5,2.7c-8.5,0.9-24.3,4-34.4,6.8c-3.6,1.1-7.9,2.1-9.3,2.5
	c-8.5,2-29.7,10.7-48.3,19.7c-44.9,21.9-86.5,58.5-114.7,100.7c-8.8,13.2-26.4,45.7-28.8,53.1c-0.4,1.5-1.7,5.1-2.9,8
	c-2,5.2-5.6,16.1-9.2,28.7c-2.5,8.3-5.6,24.5-8.1,41.6c-1.6,11.6-2,30-2,98.9c0,64.1-0.4,84.9-1.6,85.6c-0.8,0.5-7.6,0.8-14.9,0.7
	c-17.3-0.4-41.9,2-52.4,5.2c-30.9,9.5-56.8,31.2-69.5,58.7c-6.7,14.5-9.2,24-10.8,40.1c-2,20.9-2,520.8,0,542.5
	c2.7,28.9,11.2,48.1,30.8,68.8c15.3,16.1,34.8,27.3,56.1,32.4c9.1,2.1,715.5,2.1,724.5,0c21.3-5.1,40.8-16.3,56.1-32.4
	c19.3-20.4,28-39.6,30.8-68c2-20.3,2-522.7,0-542.9c-0.8-8-2.5-18.3-3.9-22.8c-11.3-37.1-37.5-63.6-75.3-76.1
	c-9.7-3.2-36.4-5.9-54-5.5c-7.1,0.3-13.5-0.1-14.4-0.7c-1.2-0.7-1.6-21.1-1.6-84.9c0-101.9-0.8-110.4-14.3-155.2
	c-8.4-27.5-27.6-64.7-46.4-89.3c-32.7-43.1-79.2-78.7-128-98c-12.1-4.8-17.2-6.4-34-11.3c-8.5-2.4-26-5.7-35.1-6.8
	c-4.9-0.4-8-1.5-8.5-2.7C631.9,0.3,626,0,598.7,0S565.5,0.3,564.9,1.9z M627.3,103.5c29.6,5.2,50.1,12.5,73.3,26.3
	c46,27.3,78.4,70.8,91.7,122.9c6.1,23.7,6.4,29.1,6,115.3l-0.4,82H598.7H399.3l-0.4-82c-0.4-86.3-0.1-91.6,6-115.3
	c4.1-16.3,11.5-35.1,18-46.4c2-3.5,3.7-6.7,3.7-6.9s2.8-4.7,6.4-9.7c28.1-41.1,68.9-69.7,116.9-82
	C575.1,101.2,605.2,99.5,627.3,103.5z M628.7,656c20.7,7.3,34.7,16.9,46.9,32c6.8,8.4,19.1,30.9,19.1,35.1c0,1.2,0.9,5.6,2,9.9
	c1.1,4.1,2,12.5,2,18.4c0,5.9-0.9,14.3-2,18.4c-1.1,4.3-2,8.5-2,9.6c0,2.8-8.4,20.4-12.9,26.9c-5.6,8.3-14.7,17.6-24,24.8
	c-4.7,3.6-8.7,7.7-9.1,9.3c-0.4,1.6-0.8,30.5-0.9,64.3l-0.4,61.3l-3.6,6.8c-6.9,13.2-15.7,20.8-29.7,25.7
	c-22,7.7-47.5-2.5-59.2-23.9L550,966l-0.4-61.3l-0.9-64.3c-0.4-1.6-4.4-5.7-9.1-9.3c-9.3-7.2-18.4-16.5-24-24.8
	c-4.5-6.5-12.9-24.1-12.9-26.9c0-1.1-0.9-5.3-2-9.6c-5.6-21.3,0.5-51.7,14.8-73.2c13.1-19.6,28.9-31.7,52.5-40.3
	c9.6-3.3,16.9-4.1,35.3-3.6C616.7,653.1,622.5,653.9,628.7,656L628.7,656z"/>
</svg>
